<svg xmlns="http://www.w3.org/2000/svg" viewBox="0 0 512 512"><defs><linearGradient id="g" x1="0" y1="0" x2="1" y2="1"><stop stop-color="#7a35ff"/><stop offset=".52" stop-color="#ed2ea6"/><stop offset="1" stop-color="#ff7845"/></linearGradient><radialGradient id="r" cx="70%" cy="15%" r="85%"><stop stop-color="#251038"/><stop offset="1" stop-color="#07040b"/></radialGradient></defs><rect width="512" height="512" rx="124" fill="url(#r)"/><circle cx="256" cy="256" r="188" fill="none" stroke="url(#g)" stroke-width="14"/><circle cx="256" cy="256" r="157" fill="#0b0711" stroke="#ffffff" stroke-opacity=".08" stroke-width="3"/><path fill="white" d="M151 220c0-42 32-69 86-69 40 0 70 13 92 35l-31 35c-16-15-35-23-59-23-20 0-31 7-31 18 0 13 11 17 45 24 57 12 82 34 82 75 0 46-36 76-94 76-47 0-84-16-107-45l33-34c20 20 43 31 72 31 24 0 37-8 37-21 0-12-11-18-44-25-55-12-81-33-81-77z"/><path d="M328 133h38v42h42v38h-42v42h-38v-42h-42v-38h42z" fill="url(#g)"/></svg>